# xmcd
#
# Track frame offsets:
#        150
#        22982
#        38850
#        57330
#        73927
#        94915
#        118920
#        136337
#        155177
#        174190
#        191717
#        213487
#        237012
#        275777
#
# Disc length: 4019 seconds
#
# Revision: 1
# Processed by: cddbd v1.5.2PL0 Copyright (c) Steve Scherf et al.
# Submitted via: ExactAudioCopy v0.95a5
#
DISCID=d30fb10e
DTITLE=Des'ree - endangerd species
DYEAR=2000
DGENRE=Soul
TTITLE0=Silent hero
TTITLE1=Get a life
TTITLE2=I ain't movin' (Family stand acoustic mix)
TTITLE3=Innocent and naive
TTITLE4=Warm hands, cold heart (2000)
TTITLE5=I ain't movin' (Live)
TTITLE6=Little chaild (Live)
TTITLE7=Looking Philosophical
TTITLE8=Caring world
TTITLE9=Soul mates
TTITLE10=Feel so high (Recorded live in London)
TTITLE11=You gota be (Recorded live in London)
TTITLE12=Life  (Recorded live in London)
TTITLE13=CDEX
EXTD=
EXTT0=
EXTT1=
EXTT2=
EXTT3=
EXTT4=
EXTT5=
EXTT6=
EXTT7=
EXTT8=
EXTT9=
EXTT10=
EXTT11=
EXTT12=
EXTT13=
PLAYORDER=
